<svg width="19" height="19" viewBox="0 0 19 19" fill="none" xmlns="http://www.w3.org/2000/svg">
<path d="M9.33333 2.33333C10.6167 2.33333 11.6667 3.38333 11.6667 4.66667C11.6667 5.95 10.6167 7 9.33333 7C8.05 7 7 5.95 7 4.66667C7 3.38333 8.05 2.33333 9.33333 2.33333ZM9.33333 12.8333C12.4833 12.8333 16.1 14.3383 16.3333 15.1667V16.3333H2.33333V15.1783C2.56667 14.3383 6.18333 12.8333 9.33333 12.8333V12.8333ZM9.33333 0C6.755 0 4.66667 2.08833 4.66667 4.66667C4.66667 7.245 6.755 9.33333 9.33333 9.33333C11.9117 9.33333 14 7.245 14 4.66667C14 2.08833 11.9117 0 9.33333 0V0ZM9.33333 10.5C6.21833 10.5 0 12.0633 0 15.1667V18.6667H18.6667V15.1667C18.6667 12.0633 12.4483 10.5 9.33333 10.5V10.5Z" fill="#333333"/>
</svg>
