<svg width="140" height="35" viewBox="0 0 140 35" fill="none" xmlns="http://www.w3.org/2000/svg">
<path d="M105.323 6.14062V32.9214" stroke="black" stroke-width="0.4963"/>
<path d="M97.076 16.5337V12.5826C96.7436 12.5142 96.5109 12.4803 96.1121 12.4803C94.3835 12.4803 92.4886 13.6726 91.6911 16.0225H91.558L91.425 12.8549H87.8682C87.9679 14.3537 88.0013 15.9545 88.0013 18.2025V29.4427H92.0898V20.8594C92.0898 20.3825 92.1562 19.9398 92.2229 19.5651C92.5883 17.6917 93.9181 16.3975 95.8793 16.3975C96.3778 16.3975 96.7436 16.4656 97.076 16.5337ZM85.5752 22.324C85.6416 21.9493 85.7079 21.3363 85.7079 20.5528C85.7079 16.9083 83.9797 12.4803 78.7275 12.4803C73.5422 12.4803 70.8164 16.806 70.8164 21.4044C70.8164 26.4796 73.9077 29.7834 79.1596 29.7834C81.4866 29.7834 83.4145 29.3407 84.8106 28.7615L84.2121 25.8662C82.9824 26.3431 81.6193 26.6158 79.7248 26.6158C77.132 26.6158 74.8386 25.3212 74.7389 22.324H85.5752V22.324ZM81.8521 19.3948H74.7389C74.905 17.6917 75.9686 15.3414 78.495 15.3414C81.2205 15.3414 81.8854 17.8621 81.8521 19.3948ZM66.0629 15.9887H69.9521V12.8549H66.0629V8.12037L62.0741 9.10806V12.8549H59.7474V15.9887H62.0741V23.7886C62.0741 25.9685 62.4732 27.4673 63.3374 28.4208C64.102 29.2723 65.3651 29.7834 66.8608 29.7834C68.1572 29.7834 69.2209 29.6131 69.8191 29.3746L69.7527 26.1728C69.387 26.2751 68.8551 26.3773 68.1572 26.3773C66.5948 26.3773 66.0629 25.3212 66.0629 23.3117V15.9887ZM54.0966 29.4427H58.1852V19.599C58.1852 14.3537 55.26 12.4803 52.4345 12.4803C49.742 12.4803 47.9804 14.0472 47.2822 15.3414H47.1825L46.9831 12.8549H43.3931C43.4928 14.2856 43.5261 15.8864 43.5261 17.7937V29.4427H47.648V19.7013C47.648 19.2244 47.6814 18.7136 47.8141 18.3387C48.2462 17.0786 49.3765 15.8864 51.0054 15.8864C53.2324 15.8864 54.0966 17.6917 54.0966 20.0759V29.4427V29.4427ZM41.1 22.324C41.1664 21.9493 41.2327 21.3363 41.2327 20.5528C41.2327 16.9083 39.5042 12.4803 34.2523 12.4803C29.067 12.4803 26.3412 16.806 26.3412 21.4044C26.3412 26.4796 29.4325 29.7834 34.6844 29.7834C37.0114 29.7834 38.9394 29.3407 40.3355 28.7615L39.7369 25.8662C38.5072 26.3431 37.1445 26.6158 35.2496 26.6158C32.6568 26.6158 30.3634 25.3212 30.2637 22.324H41.1V22.324ZM37.3769 19.3948H30.2637C30.4298 17.6917 31.4934 15.3414 34.0199 15.3414C36.7454 15.3414 37.4102 17.8621 37.3769 19.3948ZM23.9426 11.263L24.8033 8.06216C24.0063 7.63754 22.1575 7.08203 19.5755 7.08203C13.0089 7.08203 8.09985 11.459 8.09985 18.7103C8.09985 25.4064 12.2437 29.7834 19.0653 29.7834C21.6473 29.7834 23.6873 29.2934 24.6117 28.8036L23.9743 25.635C22.9541 26.1251 21.2968 26.4517 19.703 26.4517C14.9852 26.4517 12.212 23.3488 12.212 18.5143C12.212 13.2229 15.3676 10.4138 19.7347 10.4138C21.5198 10.4138 22.9224 10.8058 23.9426 11.263Z" fill="#474848"/>
<path d="M0.0369371 29.7831H4.39976V13.3716L0.0369371 14.7234V29.7831V29.7831ZM4.36282 9.57116C4.33112 8.29371 3.50935 7.31885 2.18158 7.31885C0.885182 7.31885 0 8.29371 0 9.57116C0 10.8147 0.853475 11.7896 2.14987 11.7896C3.50935 11.7896 4.36282 10.8147 4.36282 9.57116Z" fill="#D2232A"/>
<path d="M140 27.0455V24.8797C140 24.3354 139.872 23.9229 139.619 23.6575C139.416 23.4355 139.153 23.3214 138.842 23.3214C138.565 23.3214 138.324 23.3983 138.113 23.5385C137.948 23.6572 137.809 23.8082 137.694 24.0039H137.684C137.515 23.5473 137.182 23.3214 136.698 23.3214C136.226 23.3214 135.861 23.5276 135.667 23.9381H135.643L135.603 23.3983H134.926C134.945 23.7713 134.951 24.1223 134.951 24.4426V27.0452H135.706V24.8685C135.706 24.638 135.75 24.4337 135.886 24.2561C136.024 24.0742 136.199 23.9884 136.413 23.9884C136.624 23.9884 136.792 24.0696 136.899 24.2321C137.012 24.3989 137.074 24.6159 137.074 24.8879V27.0449H137.838V24.8179C137.838 24.6028 137.907 24.4008 138.038 24.238C138.168 24.0696 138.337 23.9881 138.55 23.9881C139.007 23.9881 139.229 24.3193 139.229 25.004V27.0449H140V27.0455ZM135.663 31.7761C135.391 31.3814 135.002 31.1861 134.488 31.1861C133.965 31.1861 133.546 31.3814 133.24 31.7761C132.951 32.1405 132.809 32.6013 132.809 33.1545C132.809 33.7183 132.957 34.1616 133.275 34.4994C133.588 34.8329 134.028 35 134.584 35C135.041 35 135.439 34.923 135.742 34.7757L135.646 34.2057C135.366 34.3218 135.041 34.3744 134.685 34.3744C134.369 34.3744 134.098 34.2909 133.904 34.1176C133.687 33.9376 133.571 33.6479 133.561 33.2858H135.901C135.918 33.1891 135.924 33.0687 135.924 32.9279C135.925 32.4701 135.815 32.0899 135.663 31.7761ZM135.219 32.7131H133.561C133.583 32.4698 133.663 32.2593 133.796 32.0833C133.956 31.8725 134.176 31.7587 134.431 31.7587C134.719 31.7587 134.926 31.8728 135.064 32.0899C135.167 32.2724 135.222 32.4701 135.219 32.7131ZM133.426 27.0455H134.131C134.116 26.692 134.098 26.341 134.098 26.0032V23.3987H133.306V25.6257C133.306 25.7398 133.292 25.8427 133.258 25.9329C133.119 26.2792 132.877 26.4525 132.526 26.4525C132.058 26.4525 131.821 26.1105 131.821 25.4063V23.3983H130.993V25.5507C130.993 26.1062 131.124 26.5229 131.368 26.7929C131.576 27.0235 131.883 27.133 132.238 27.133C132.741 27.133 133.119 26.9271 133.372 26.4946H133.383L133.426 27.0455ZM131.419 9.19048C131.398 7.08091 133.198 6.01395 133.273 5.97054C132.293 4.46648 130.694 4.25433 130.169 4.23361C128.819 4.09449 127.579 5.03712 126.96 5.03712C126.314 5.03712 125.281 4.25368 124.179 4.28986C122.734 4.29841 121.4 5.14237 120.647 6.46784C119.163 9.0484 120.273 12.9478 121.727 15.1265C122.462 16.2138 123.303 17.3772 124.418 17.3291C125.492 17.2874 125.902 16.6457 127.114 16.6457C128.413 16.6457 128.785 17.3291 129.948 17.3176C131.079 17.287 131.844 16.251 132.572 15.1679C133.369 13.9171 133.705 12.7367 133.719 12.6719C133.697 12.6676 131.445 11.8371 131.419 9.19048ZM129.29 2.79993C129.895 2.06056 130.285 1.01367 130.18 0C129.31 0.0305878 128.263 0.582484 127.679 1.3383C127.107 1.99774 126.722 3.03674 126.852 4.02838C127.724 4.10797 128.682 3.54391 129.29 2.79993ZM120.058 23.8966C119.763 24.2653 119.617 24.7241 119.617 25.2724C119.617 25.8388 119.772 26.2795 120.089 26.6199C120.409 26.9554 120.842 27.1179 121.393 27.1179C121.851 27.1179 122.253 27.0436 122.582 26.8985L122.466 26.3302C122.173 26.4463 121.854 26.4996 121.5 26.4996C121.178 26.4996 120.918 26.4137 120.723 26.245C120.498 26.0605 120.382 25.7796 120.371 25.4175H122.755C122.779 25.3208 122.788 25.1958 122.788 25.0488C122.788 24.59 122.676 24.2104 122.473 23.8947C122.203 23.5108 121.816 23.3109 121.304 23.3109C120.783 23.3109 120.364 23.5105 120.058 23.8966ZM120.371 24.8356C120.394 24.5896 120.479 24.3702 120.605 24.2058C120.768 23.9887 120.976 23.8703 121.24 23.8703C121.528 23.8703 121.73 23.991 121.874 24.2124C121.98 24.3857 122.038 24.5962 122.031 24.8356H120.371ZM120.858 31.1861C120.339 31.1861 119.919 31.3814 119.613 31.7761C119.315 32.1405 119.173 32.6013 119.173 33.1545C119.173 33.7183 119.328 34.1616 119.643 34.4994C119.959 34.8329 120.392 35 120.943 35C121.412 35 121.808 34.923 122.139 34.7757L122.022 34.2054C121.729 34.3215 121.412 34.3741 121.051 34.3741C120.729 34.3741 120.479 34.2906 120.276 34.1172C120.053 33.9373 119.938 33.6476 119.93 33.2854H122.313C122.333 33.1887 122.349 33.0684 122.349 32.9276C122.349 32.4694 122.229 32.0892 122.03 31.7755C121.759 31.3814 121.37 31.1861 120.858 31.1861ZM120.79 31.7587C121.075 31.7587 121.291 31.8728 121.424 32.0899C121.539 32.2721 121.594 32.4698 121.586 32.7131H119.931C119.953 32.4698 120.033 32.2593 120.169 32.0833C120.322 31.8728 120.541 31.7587 120.79 31.7587ZM119.091 24.0897C119.154 24.0897 119.214 24.092 119.292 24.1114V23.3414C119.232 23.3257 119.172 23.3214 119.135 23.3214C118.929 23.3214 118.741 23.3872 118.553 23.521C118.358 23.6615 118.224 23.8591 118.15 24.0917H118.12L118.093 23.3983H117.401C117.418 23.7427 117.428 24.1265 117.428 24.5413V27.0452H118.223V25.132C118.223 24.8399 118.295 24.5962 118.426 24.4143C118.599 24.1972 118.813 24.0897 119.091 24.0897ZM116.482 24.5702C116.755 24.2959 116.884 23.9203 116.884 23.4533C116.884 22.9968 116.737 22.6238 116.426 22.3538C116.11 22.0775 115.644 21.941 115.015 21.941C114.53 21.941 114.092 21.9719 113.812 22.0528V27.0455H114.525V25.0925C114.634 25.1076 114.778 25.1208 114.973 25.1208C115.639 25.1208 116.143 24.9389 116.482 24.5702ZM116.105 23.5039C116.105 23.8085 116.001 24.0502 115.801 24.2255C115.602 24.3992 115.329 24.4867 114.978 24.4867C114.785 24.4867 114.637 24.4716 114.525 24.4426V22.6172C114.658 22.584 114.835 22.5731 115.05 22.5731C115.389 22.5731 115.644 22.6475 115.825 22.8103C116.007 22.9731 116.105 23.1987 116.105 23.5039ZM116.837 29.828C116.341 29.828 115.915 29.8586 115.55 29.9264V34.9273H116.354V32.7924H116.837C117.101 32.7924 117.306 32.8625 117.442 33.0075C117.582 33.1368 117.688 33.3805 117.753 33.7225C117.888 34.3744 117.999 34.7806 118.071 34.9273H118.917C118.873 34.8398 118.813 34.6731 118.751 34.3942C118.701 34.2429 118.639 33.9488 118.526 33.5275C118.386 32.9878 118.152 32.6454 117.812 32.5204V32.4984C118.071 32.4017 118.288 32.255 118.447 32.0488C118.657 31.8159 118.751 31.5288 118.751 31.2236C118.751 30.7999 118.613 30.4668 118.314 30.2273C118.004 29.955 117.51 29.828 116.837 29.828ZM116.354 30.4796C116.48 30.4444 116.668 30.4247 116.92 30.4247C117.587 30.4289 117.927 30.7141 117.927 31.2956C117.927 31.5725 117.834 31.7853 117.645 31.9475C117.462 32.1119 117.219 32.2001 116.906 32.2001H116.354V30.4796V30.4796ZM122.974 34.1488L122.805 34.752C123.09 34.9188 123.431 35 123.841 35C124.266 35 124.607 34.8967 124.853 34.6928C125.089 34.4823 125.215 34.2123 125.215 33.8811C125.215 33.3762 124.915 33.0141 124.287 32.7747C124.057 32.6872 123.887 32.6013 123.807 32.5247C123.716 32.4477 123.659 32.3402 123.659 32.2175C123.659 32.0942 123.709 31.9915 123.798 31.9103C123.887 31.8314 124.023 31.7896 124.189 31.7896C124.446 31.7896 124.685 31.8597 124.915 31.9915L125.084 31.4166C124.835 31.2716 124.536 31.1995 124.185 31.1995C123.797 31.1995 123.484 31.3071 123.246 31.5087C123.02 31.7264 122.9 31.9869 122.9 32.2991C122.9 32.7638 123.223 33.1022 123.855 33.3476C124.08 33.4334 124.239 33.5147 124.329 33.5979C124.415 33.6857 124.466 33.8107 124.466 33.9449C124.466 34.2429 124.253 34.3902 123.855 34.3902C123.541 34.3899 123.246 34.3133 122.974 34.1488ZM124.895 23.9887C125.111 23.9887 125.278 24.07 125.379 24.2324C125.492 24.3992 125.554 24.6163 125.554 24.8883V27.0452H126.318V24.8182C126.318 24.6031 126.387 24.4012 126.51 24.2384C126.643 24.07 126.815 23.9884 126.977 23.9884C127.389 23.9884 127.611 24.3196 127.611 25.0044V27.0452H128.386V24.8794C128.386 24.3351 128.26 23.9226 128.008 23.6572C127.802 23.4352 127.539 23.3211 127.223 23.3211C126.986 23.3211 126.795 23.398 126.595 23.5381C126.42 23.6569 126.284 23.8078 126.169 24.0035H126.161C125.993 23.547 125.658 23.3211 125.177 23.3211C124.696 23.3211 124.342 23.5273 124.095 23.9377H124.076L124.029 23.398H123.364C123.372 23.771 123.388 24.1219 123.388 24.4423V27.0449H124.152V24.8682C124.152 24.6376 124.226 24.4334 124.366 24.2558C124.497 24.0746 124.681 23.9887 124.895 23.9887ZM126.193 31.7761C125.9 32.1405 125.756 32.6013 125.756 33.1545C125.756 33.7183 125.911 34.1616 126.229 34.4994C126.543 34.8329 126.954 35 127.438 35C127.902 35 128.299 34.923 128.634 34.7757L128.511 34.2057C128.229 34.3218 127.902 34.3744 127.542 34.3744C127.224 34.3744 126.997 34.2909 126.856 34.1176C126.641 33.9376 126.518 33.6479 126.51 33.2858H128.81C128.822 33.1891 128.838 33.0687 128.838 32.9279C128.838 32.4698 128.733 32.0896 128.52 31.7758C128.259 31.3811 127.863 31.1857 127.352 31.1857C126.923 31.1861 126.504 31.3814 126.193 31.7761ZM126.51 32.7131C126.538 32.4698 126.618 32.2593 126.746 32.0833C126.917 31.8725 127.035 31.7587 127.287 31.7587C127.579 31.7587 127.778 31.8728 127.92 32.0899C128.028 32.2721 128.082 32.4698 128.082 32.7131H126.51ZM129.419 21.9436C129.326 22.0469 129.282 22.1541 129.282 22.2926C129.282 22.4284 129.326 22.5425 129.416 22.6369C129.502 22.7248 129.616 22.782 129.745 22.782C129.892 22.782 130.015 22.7294 130.109 22.6369C130.199 22.5491 130.248 22.4373 130.248 22.2926C130.248 22.1541 130.199 22.0466 130.109 21.9436C130.015 21.8578 129.9 21.8094 129.764 21.8094C129.619 21.8094 129.517 21.8578 129.419 21.9436ZM130.156 23.3987H129.364V27.0455H130.156V23.3987ZM130.366 29.5952H129.566V34.9273H130.366V29.5952ZM132.038 29.5952H131.205V34.9273H132.038V29.5952ZM137.331 31.2716H136.645C136.667 31.6205 136.669 32.0044 136.669 32.4171V34.9273H137.469V33.0095C137.469 32.7132 137.542 32.474 137.672 32.2918C137.817 32.0639 138.034 31.9606 138.307 31.9606C138.395 31.9606 138.473 31.9738 138.55 31.985V31.2147C138.495 31.2038 138.436 31.1995 138.346 31.1995C138.146 31.1995 137.957 31.2673 137.779 31.3923C137.6 31.5327 137.464 31.7327 137.382 31.9649H137.368L137.331 31.2716Z" fill="#474848"/>
</svg>
